<svg id="Layer_1" data-name="Layer 1" xmlns="http://www.w3.org/2000/svg" viewBox="0 0 509.92 100.56"><defs><style>.cls-1{fill:#231f20;}</style></defs><title>1a. Sonos_Wordmark_Black</title><polygon class="cls-1" points="276.21 57.21 215.82 0.91 215.82 96.36 233.72 96.36 233.72 43.06 294.1 99.27 294.1 3.58 276.21 3.58 276.21 57.21"/><path class="cls-1" d="M238,99.64A50.1,50.1,0,1,0,288,149.74,50.15,50.15,0,0,0,238,99.64Zm0,82.18a32.09,32.09,0,1,1,31.76-32.08A32,32,0,0,1,238,181.82Z" transform="translate(-100.56 -99.64)"/><path class="cls-1" d="M157.39,150.57c-4.76-3.63-11-6.56-20.33-9.52-18.14-5.76-18.14-10.34-18.14-12.53,0-5.16,5.75-10.5,15.39-10.5a29.11,29.11,0,0,1,16.75,5.79l1.25.94L166.73,115l-1.57-1.87a42.19,42.19,0,0,0-30.85-13.47c-9.28,0-17.81,3-24,8.35a27.34,27.34,0,0,0-9.73,20.51c0,8.22,3.59,15.13,10.67,20.53,4.76,3.63,11,6.56,20.33,9.52,18.14,5.76,18.14,10.34,18.14,12.53,0,5.16-5.76,10.5-15.39,10.5a29,29,0,0,1-16.75-5.79l-1.25-.94-14.43,9.75,1.57,1.87A42.29,42.29,0,0,0,134.31,200c9.27,0,17.8-3,24-8.35a27.36,27.36,0,0,0,9.74-20.51C168.06,162.88,164.47,156,157.39,150.57Z" transform="translate(-100.56 -99.64)"/><path class="cls-1" d="M473.08,100a50.1,50.1,0,1,0,50.1,50.09A50.15,50.15,0,0,0,473.08,100Zm0,82.18a32.09,32.09,0,1,1,31.76-32.09A32,32,0,0,1,473.08,182.19Z" transform="translate(-100.56 -99.64)"/><path class="cls-1" d="M553.65,149.27c4.75,3.63,11,6.56,20.33,9.52,18.13,5.76,18.13,10.34,18.13,12.53,0,5.16-5.75,10.5-15.38,10.5A29.08,29.08,0,0,1,560,176l-1.26-.93-14.42,9.74,1.57,1.87a42.22,42.22,0,0,0,30.86,13.47c9.27,0,17.8-3,24-8.35a27.35,27.35,0,0,0,9.74-20.51c0-8.22-3.59-15.13-10.68-20.53-4.75-3.63-11-6.56-20.33-9.52-18.13-5.76-18.13-10.34-18.13-12.53,0-5.16,5.75-10.5,15.38-10.5A29,29,0,0,1,593.47,124l1.26.94,14.42-9.75-1.57-1.87a42.19,42.19,0,0,0-30.86-13.47c-9.27,0-17.8,3-24,8.35A27.35,27.35,0,0,0,543,128.74C543,137,546.57,143.87,553.65,149.27Z" transform="translate(-100.56 -99.64)"/></svg>